<svg id="Layer_1" data-name="Layer 1" xmlns="http://www.w3.org/2000/svg" viewBox="0 0 256.03 186.66"><path d="M26.64,37.94c0-6.89,6.1-12.67,13.35-12.67s13.35,5.78,13.35,12.67S47.23,50.65,40,50.65,26.64,44.83,26.64,37.94Zm19.56,0A6.21,6.21,0,1,0,40,44.36,6.4,6.4,0,0,0,46.2,37.94Z" fill="#fff"/><path d="M79.6,50.18l-5.18-7.39H72.28v7.39H65.35V25.65H77.1c5.5,0,9.39,3.54,9.39,8.57a8.15,8.15,0,0,1-4.86,7.64l5.86,8.32ZM72.28,36.51h4.25c1.64,0,2.82-1,2.82-2.29s-1.18-2.28-2.82-2.28H72.28Z" fill="#fff"/><path d="M106.37,31.79v2.75H118v6.18H106.37V44h12.81v6.18H99.44V25.61h19.74v6.17Z" fill="#fff"/><path d="M143.13,35.75h11.5V46.17a13.91,13.91,0,0,1-10.14,4.36c-7.36,0-13.53-5.82-13.53-12.71s6.17-12.67,13.53-12.67a14,14,0,0,1,10.14,4.32l-5.11,4.46a6.37,6.37,0,0,0-5-2.5,6.41,6.41,0,1,0,3.42,11.82v-2.4h-4.78Z" fill="#fff"/><path d="M166.62,37.78c0-6.89,6.1-12.67,13.35-12.67s13.35,5.78,13.35,12.67S187.21,50.49,180,50.49,166.62,44.67,166.62,37.78Zm19.56,0A6.21,6.21,0,1,0,180,44.21,6.4,6.4,0,0,0,186.18,37.78Z" fill="#fff"/><path d="M205.84,25.5h6.93l9.56,13.13V25.5h6.92V50h-6.93l-9.56-13.14V50h-6.93Z" fill="#fff"/><path d="M122,147.07a.59.59,0,0,0,.3,0c.1,0,.16.15.37.11a2.28,2.28,0,0,0,.82-.28,3,3,0,0,0,.48-.3.64.64,0,0,1,.14-.08s.57.11.73,0,.18-.05.32,0a.32.32,0,0,0,.29,0,.61.61,0,0,1,.45.17c0,.09,0,.31.16.27a.82.82,0,0,0,.32-.21c.05,0,.21,0,.28,0s.17.12.25.07.12-.14.19-.15a2.11,2.11,0,0,0,.57-.27c0-.08.18.1.36.15a1.33,1.33,0,0,0,.68-.06c.08-.07.2,0,.28,0s.12-.23.25-.24a.9.9,0,0,0,.41-.16,2.56,2.56,0,0,1,.58-.15c.13,0,.38-.05.45-.2s.1-.16.27-.1a1.28,1.28,0,0,0,.66-.09c.19-.06.3,0,.49,0a.71.71,0,0,0,.41-.21.48.48,0,0,1,.13-.12l6.17-.12a.89.89,0,0,1,.18.31c0,.12.16.13.19.23s0,.21.12.18.19,0,.26.11.22,0,.31.13,0,.2.13.32.28.29.17.43a5.68,5.68,0,0,0-.55,1.2,2.53,2.53,0,0,1-.19.83c-.09.1,0,.17-.11.24s-.21.11-.18.29.09.18,0,.45-.14.44-.23.48-.31.11-.34.24-.2.63-.23.76-.24.21-.23.35,0,.33,0,.39.2.16.13.25,0,.3.08.27.09-.17.19-.08.13.24.21.17.2,0,.22.08.27.07.24.22-.13.34-.19.35.06.12.09.24a.3.3,0,0,1-.1.29c-.07,0,.1.16.08.18l-.07.18-.17.26.3,7.79s-6.33.24-9.1.25-13.64-.24-13.64-.24a2.64,2.64,0,0,1-.39-.41,2.51,2.51,0,0,1-.1-.44.69.69,0,0,0-.09-.23s0-.28,0-.31v-.47a5.71,5.71,0,0,1,.14-.56.54.54,0,0,0,0-.38c-.06-.09-.1-.19-.15-.26s-.11-.17-.15-.14-.08-.35-.13-.4.1-.2.17-.34.24-.82.31-1a1.56,1.56,0,0,0,.14-.54.56.56,0,0,1-.06-.17,1.58,1.58,0,0,0,.42-.62c.07-.29.35-1.16.36-1.33s.18-.93.18-1.11.11-1.14.13-1.27a9.71,9.71,0,0,0,.11-1.05c0-.21.14-.39.09-.55a1.81,1.81,0,0,1,0-.67,1.12,1.12,0,0,0,.12-.29,4.56,4.56,0,0,1,0-.52c0-.07.13-.39.14-.45s.1-.1.1-.1l-.07-.17s.1-.25.1-.28-.07-.13-.08-.19a.07.07,0,0,0-.09,0s.15-.14.15-.22-.1-.27-.07-.38.06-.21.12-.15.14.27.17.19a.58.58,0,0,0,0-.3c0-.07,0-.17-.11-.17s0-.34,0-.4.17,0,.14-.11-.2-.06-.2-.06,0-.16,0-.24.1-.39.08-.52a1,1,0,0,0-.13-.26s.21,0,.23-.17a3.64,3.64,0,0,0,0-.6c0-.08-.17-.31-.18-.37s.17,0,.23.12.19.21.22.18.17-.29.25-.18a.37.37,0,0,0,.38.13c.09-.06.27-.27.33-.27s.27.32.42.39.46.1.52,0,.12-.12.12-.12a.38.38,0,0,1,.28.08c.09.09.43.24.47.36s.25.49.27.59.09.56.08.67.1.08.06.18-.11.36.05.49.32.09.43.14Z" fill="#fff"/><rect x="26.64" y="153.44" width="76.84" height="2" fill="#fff"/><rect x="152.55" y="153.44" width="76.84" height="2" fill="#fff"/><path d="M62,66c9,2.91,13.48,9.29,13.48,18.94,0,6.19-2,11.11-6.19,14.75-4.37,3.82-10.38,5.83-18,5.83H41.93v17.75c.55.18,2.37.55,5.28,1.09a1.55,1.55,0,0,1,1.28,1.73v3.83H26.64v-3.83A1.61,1.61,0,0,1,28,124.36l5.19-1v-52q-4.36-.83-5.19-1.09a1.6,1.6,0,0,1-1.36-1.73V64.72H51.22A37.53,37.53,0,0,1,62,66.09Zm4.65,18.76c0-4.19-1.28-7.29-3.83-9.66s-6.37-3.46-11.56-3.46H41.93V98.41h9.29c4.92,0,8.65-1.18,11.38-3.64a12.64,12.64,0,0,0,4.1-9.92Z" fill="#fff"/><path d="M123.46,64.72V80.48h-4.37a1.7,1.7,0,0,1-1.92-1.55c0-.27-.27-2.64-.63-7H92.13V93.59h24v6.92h-24v22.31h24.41c.36-4,.54-6.29.54-6.56.19-1.09.91-1.46,2-1.46h4.37v15.12H76.66v-3.83A1.61,1.61,0,0,1,78,124.36l5.19-1v-52q-4.36-.83-5.19-1.09a1.6,1.6,0,0,1-1.36-1.73V64.72Z" fill="#fff"/><path d="M183.06,124.27a1.67,1.67,0,0,1,1.37,1.64v4H175A3.64,3.64,0,0,1,171.5,128L154.56,104.7a6.17,6.17,0,0,0-1.64-1.55,5,5,0,0,0-2.73-.55h-5.83v20.58s4.38.91,5.1,1.09a1.75,1.75,0,0,1,1.46,1.64v3.92H129v-3.92a1.66,1.66,0,0,1,1.36-1.64c.82-.18,5.28-1.09,5.28-1.09V71.28s-4.46-.91-5.28-1.09A1.65,1.65,0,0,1,129,68.55v-4h24.13a40.83,40.83,0,0,1,10.74,1.28,19.83,19.83,0,0,1,7.47,3.64,14.71,14.71,0,0,1,4.37,5.73,20,20,0,0,1,1.36,7.56A18,18,0,0,1,176,89.13a18.29,18.29,0,0,1-3.19,5.46,17.08,17.08,0,0,1-5,4.1,25.07,25.07,0,0,1-6.74,2.64,9,9,0,0,1,2.91,2.73l14.11,19.3c.55.09,4.37.73,5.1.91Zm-30.5-28a22.46,22.46,0,0,0,6.83-.91,14.3,14.3,0,0,0,4.92-2.73,11.2,11.2,0,0,0,3-4,12.68,12.68,0,0,0,1-5.28q0-5.74-3.82-8.74c-2.55-2-6.29-2.92-11.38-2.92h-8.84V96.23h8.29Z" fill="#fff"/><path d="M219.56,95.41c6.56,2.91,9.83,7.83,9.83,14.66,0,6-1.82,10.83-5.64,14.66-4,4-9.47,5.92-16.21,5.92a52.19,52.19,0,0,1-8.92-.82,64.5,64.5,0,0,1-7.29-1.73l-2.64-.91V110.8h4.46a1.6,1.6,0,0,1,1.82,1.55,40,40,0,0,1,.46,4.46c.18,2.55.27,4,.27,4,4.56,1.64,8.2,2.55,11.11,2.55a21.29,21.29,0,0,0,6.74-.91,10.47,10.47,0,0,0,4.19-2.46,11,11,0,0,0,3.46-8.65,8.74,8.74,0,0,0-4.92-8,19.85,19.85,0,0,0-4.92-2.18c-5.82-1.83-9.65-3-11.47-3.83a20.64,20.64,0,0,1-5-3.28c-3.27-2.91-4.82-7-4.82-12.2a16.71,16.71,0,0,1,5.19-12.38C199,65.82,203.81,64,209.82,64a47.49,47.49,0,0,1,18.3,3.64v15h-4.37a1.68,1.68,0,0,1-1.91-1.55c0-.18-.28-2.82-.64-8.1a42.37,42.37,0,0,0-10.75-1.73c-3.82,0-6.92.91-9.1,2.91a9.63,9.63,0,0,0-3.1,7.29c0,3.18,1.64,5.73,4.92,7.56a24.22,24.22,0,0,0,5.1,2.27q8.19,2.73,11.47,4.1Z" fill="#fff"/></svg>